<svg xmlns="http://www.w3.org/2000/svg" width="800" height="400" viewBox="0 0 800 400" preserveAspectRatio="none">
            <!-- https://grabient.com/HQJgnA7ANMDMEFYa1gFhgi1gDYTQEZgDV05YAGGAyGCiWKEYCsMghqI2HKgWgotaRCqJhgwSAcFSwEQA?style=linearSwatches&angle=180 -->
            <defs>
              <clipPath id="bounds">
                <rect x="0" y="0" width="800" height="400" />
              </clipPath>
            </defs>
            <g clip-path="url(#bounds)"><path d="M -47.214,0.000 L 847.214,-0.000 L 847.214,30.769 L -47.214,30.769 Z" fill="#003bff" fill-opacity="1.000" /><path d="M -47.214,30.769 L 847.214,30.769 L 847.214,61.538 L -47.214,61.538 Z" fill="#004bff" fill-opacity="1.000" /><path d="M -47.214,61.538 L 847.214,61.538 L 847.214,92.308 L -47.214,92.308 Z" fill="#125cff" fill-opacity="1.000" /><path d="M -47.214,92.308 L 847.214,92.308 L 847.214,123.077 L -47.214,123.077 Z" fill="#2b6cff" fill-opacity="1.000" /><path d="M -47.214,123.077 L 847.214,123.077 L 847.214,153.846 L -47.214,153.846 Z" fill="#447bff" fill-opacity="1.000" /><path d="M -47.214,153.846 L 847.214,153.846 L 847.214,184.615 L -47.214,184.615 Z" fill="#5d8bff" fill-opacity="1.000" /><path d="M -47.214,184.615 L 847.214,184.615 L 847.214,215.385 L -47.214,215.385 Z" fill="#7499ff" fill-opacity="1.000" /><path d="M -47.214,215.385 L 847.214,215.385 L 847.214,246.154 L -47.214,246.154 Z" fill="#8aa7ff" fill-opacity="1.000" /><path d="M -47.214,246.154 L 847.214,246.154 L 847.214,276.923 L -47.214,276.923 Z" fill="#9db3ff" fill-opacity="1.000" /><path d="M -47.214,276.923 L 847.214,276.923 L 847.214,307.692 L -47.214,307.692 Z" fill="#adbfff" fill-opacity="1.000" /><path d="M -47.214,307.692 L 847.214,307.692 L 847.214,338.462 L -47.214,338.462 Z" fill="#b9c9ff" fill-opacity="1.000" /><path d="M -47.214,338.462 L 847.214,338.462 L 847.214,369.231 L -47.214,369.231 Z" fill="#c2d2ff" fill-opacity="1.000" /><path d="M -47.214,369.231 L 847.214,369.231 L 847.214,400.000 L -47.214,400.000 Z" fill="#c6d9ff" fill-opacity="1.000" /></g>
          </svg>